<svg width="20" height="20" viewBox="0 0 51 60" fill="none" xmlns="http://www.w3.org/2000/svg">
<g opacity="0.6">
<path fill-rule="evenodd" clip-rule="evenodd" d="M38.0615 5.73986L50.6196 40.5373C45.7424 38.4031 40.512 36.9096 35.1069 36.1078L26.6599 12.0309C26.5917 11.8379 26.452 11.6688 26.2614 11.5487C26.0709 11.4286 25.8398 11.3639 25.6025 11.3643C25.3653 11.3646 25.1344 11.43 24.9444 11.5507C24.7544 11.6714 24.6154 11.8409 24.548 12.034L16.2026 36.0958C10.7729 36.8939 5.51831 38.3899 0.619629 40.5323L13.242 5.72971C13.9875 3.67287 14.3603 2.64414 15.0872 1.88242C15.7282 1.20985 16.5612 0.687606 17.5069 0.365321C18.5782 1.51214e-07 19.8452 0 22.3807 0H28.9183C31.4568 0 32.726 7.56071e-08 33.7981 0.365956C34.7448 0.688946 35.5783 1.21232 36.2193 1.88622C36.9454 2.64921 37.3182 3.67922 38.0615 5.73986Z" fill="black"/>
<path fill-rule="evenodd" clip-rule="evenodd" d="M37.7219 42.1083C35.5831 43.6508 31.3137 44.703 26.3958 44.703C20.3595 44.703 15.3004 43.118 13.958 40.9863C13.4783 42.2079 13.3708 43.6057 13.3708 44.4994C13.3708 44.4994 13.0548 48.8851 16.6713 51.9358C16.6713 50.3515 18.193 49.0678 20.0711 49.0678C23.2902 49.0678 23.2865 51.436 23.2835 53.3578V53.529C23.2835 56.4465 25.3969 58.9461 28.4024 60.0002C27.9399 59.1977 27.7002 58.316 27.7016 57.4226C27.7016 54.6408 29.638 53.6045 31.8881 52.4013C33.6781 51.4436 35.6683 50.3794 37.0384 48.2446C37.7766 47.0958 38.1624 45.8079 38.1605 44.4994C38.1605 43.666 38.0066 42.8624 37.7219 42.1083Z" fill="#FF5D01"/>
</g>
</svg>
