<svg width="61" height="60" viewBox="0 0 61 60" fill="none" xmlns="http://www.w3.org/2000/svg">
<g opacity="0.6">
<path d="M59.1035 8.84028L32.1769 57.7047C31.621 58.7136 30.1927 58.7195 29.6284 57.7155L2.16796 8.84499C1.55321 7.75092 2.47506 6.42571 3.6967 6.64731L30.6521 11.537C30.824 11.5682 31.0001 11.5679 31.172 11.5361L57.5637 6.65432C58.7812 6.42911 59.7074 7.74406 59.1035 8.84028Z" fill="url(#paint0_linear_154_90)"/>
<path d="M43.4928 0.233944L23.5663 4.19644C23.2388 4.26156 22.9963 4.54324 22.9766 4.88127L21.7508 25.8907C21.722 26.3856 22.1698 26.7696 22.6457 26.6582L28.1935 25.3589C28.7126 25.2374 29.1816 25.7014 29.0749 26.2311L27.4267 34.4222C27.3158 34.9734 27.8258 35.4448 28.3562 35.2813L31.7828 34.2248C32.3141 34.0611 32.8245 34.5338 32.7121 35.0856L30.0927 47.9519C29.9288 48.7567 30.9837 49.1955 31.4236 48.5055L31.7174 48.0447L47.9546 15.1593C48.2265 14.6087 47.7576 13.9809 47.1617 14.0976L41.4512 15.2161C40.9145 15.3211 40.458 14.8139 40.6094 14.2811L44.3366 1.16847C44.4882 0.634747 44.03 0.127129 43.4928 0.233944Z" fill="url(#paint1_linear_154_90)"/>
</g>
<defs>
<linearGradient id="paint0_linear_154_90" x1="1.4975" y1="4.90097" x2="35.6531" y2="50.6083" gradientUnits="userSpaceOnUse">
<stop stop-color="#41D1FF"/>
<stop offset="1" stop-color="#BD34FE"/>
</linearGradient>
<linearGradient id="paint1_linear_154_90" x1="29.1054" y1="1.30975" x2="35.3451" y2="43.4871" gradientUnits="userSpaceOnUse">
<stop stop-color="#FFEA83"/>
<stop offset="0.0833333" stop-color="#FFDD35"/>
<stop offset="1" stop-color="#FFA800"/>
</linearGradient>
</defs>
</svg>
