<svg width="69" height="69" viewBox="0 0 69 69" fill="none" xmlns="http://www.w3.org/2000/svg">
<path d="M36.1998 1.09994C35.7478 0.651224 35.1367 0.399414 34.4998 0.399414C33.8629 0.399414 33.2518 0.651224 32.7998 1.09994L1.0998 32.7999C0.199805 33.6999 0.199805 35.2999 1.0998 36.1999C1.5998 36.6999 2.1998 36.8999 2.7998 36.8999C3.3998 36.8999 3.9998 36.6999 4.4998 36.1999L32.0998 8.59994V66.1999C32.0998 67.4999 33.1998 68.5999 34.4998 68.5999C35.7998 68.5999 36.8998 67.4999 36.8998 66.1999V8.59994L64.4998 36.1999C65.3998 37.0999 66.9998 37.0999 67.8998 36.1999C68.7998 35.2999 68.7998 33.6999 67.8998 32.7999L36.1998 1.09994Z" fill="black"/>
</svg>
