<svg width="80" height="80" viewBox="0 0 81 80" fill="none" xmlns="http://www.w3.org/2000/svg">
<path d="M40.6382 0C18.5444 0 0.638184 17.9062 0.638184 40C0.638184 62.0938 18.5444 80 40.6382 80C62.7319 80 80.6382 62.0938 80.6382 40C80.6382 17.9062 62.7319 0 40.6382 0ZM29.4507 56.7344H21.6538V31.7812H29.4507V56.7344ZM25.3413 28.6562H25.2788C22.4507 28.6562 20.6226 26.75 20.6226 24.3281C20.6226 21.8594 22.5132 20 25.3882 20C28.2632 20 30.0288 21.8594 30.0913 24.3281C30.1069 26.7344 28.2788 28.6562 25.3413 28.6562ZM60.6382 56.7344H51.7944V43.8281C51.7944 40.4531 50.4194 38.1406 47.3726 38.1406C45.0444 38.1406 43.7476 39.7031 43.1538 41.2031C42.9351 41.7344 42.9663 42.4844 42.9663 43.25V56.7344H34.2007C34.2007 56.7344 34.3101 33.8594 34.2007 31.7812H42.9663V35.7031C43.4819 33.9844 46.2788 31.5469 50.7476 31.5469C56.2944 31.5469 60.6382 35.1406 60.6382 42.8594V56.7344Z" fill="#1D4E89"/>
</svg>
