<svg width="80" height="80" viewBox="0 0 81 80" fill="none" xmlns="http://www.w3.org/2000/svg">
<path d="M80.3623 40C80.3623 47.9112 78.0163 55.6448 73.6211 62.2228C69.2258 68.8008 62.9787 73.9277 55.6696 76.9552C48.3606 79.9827 40.3179 80.7748 32.5587 79.2314C24.7995 77.688 17.6721 73.8784 12.078 68.2843C6.48395 62.6902 2.67432 55.5628 1.13091 47.8036C-0.412497 40.0444 0.379636 32.0017 3.40714 24.6927C6.43465 17.3836 11.5615 11.1365 18.1395 6.74121C24.7175 2.34596 32.4511 0 40.3623 0C50.971 0 61.1451 4.21427 68.6466 11.7157C76.148 19.2172 80.3623 29.3913 80.3623 40ZM31.2023 41.28L12.0273 27.14V53.57L31.2023 41.28ZM16.9823 25.825L35.6973 39.625C37.0677 40.5216 38.6697 40.9991 40.3073 40.9991C41.9449 40.9991 43.547 40.5216 44.9173 39.625L63.6323 25.825H16.9823ZM62.1323 54.195L45.8323 43.74C44.1089 44.5706 42.2204 45.002 40.3073 45.002C38.3942 45.002 36.5057 44.5706 34.7823 43.74L18.4673 54.195H62.1323ZM68.5873 27.145L49.4123 41.28L68.5873 53.58V27.145Z" fill="#1D4E89"/>
</svg>
