<svg width="50" height="53" viewBox="0 0 50 53" fill="none" xmlns="http://www.w3.org/2000/svg">
<path d="M25.722 0C12.3018 0 1.43322 10.8686 1.43322 24.2888C1.43322 29.696 3.20304 34.6905 6.18892 38.7296L0 52.1173L1.61781 51.3681L14.0825 45.6135C17.5353 47.5027 21.4984 48.5776 25.7112 48.5776C39.1205 48.5776 50 37.709 50 24.2888C50.0108 10.8686 39.1314 0 25.722 0ZM38.6753 34.658C38.5342 35.3312 38.241 35.9718 37.8176 36.5364C37.2964 37.2313 36.6232 37.7524 35.8523 38.0782C35.0814 38.4039 34.2345 38.5342 33.3876 38.4256C31.1183 38.1542 28.9251 37.4267 26.9598 36.2541C24.6905 34.9077 21.6395 32.8122 19.3377 29.8154C16.8838 26.9381 15.5483 23.5722 14.7014 21.0641C13.9739 18.9034 13.7134 16.6015 13.9196 14.3322C13.9957 13.4745 14.2997 12.671 14.7774 11.987C15.2552 11.3029 15.9175 10.7492 16.6992 10.3909C17.3398 10.0869 18.0347 9.94571 18.7188 9.94571C19.696 9.94571 20.8903 9.93485 21.7155 10.5212C22.9967 11.4224 23.5396 13.203 23.5396 14.7666C23.5396 14.9077 23.5288 15.0597 23.5179 15.2009C23.4419 16.0586 23.3659 16.8078 22.8773 17.4919C22.3996 18.1759 21.5201 18.7731 20.7383 19.1422C21.3355 22.3561 22.367 24.7448 23.7894 26.2866C24.3974 27.1335 25.2226 27.937 26.2758 28.6862C27.329 29.4354 28.5993 30.1194 30.1086 30.7492C30.6297 30.0651 31.4006 29.3268 32.1715 29.0011C32.9316 28.6753 33.6916 28.7513 34.5385 28.8599C34.6797 28.8816 34.8317 28.9034 34.9728 28.9359C36.4929 29.2617 38.1216 30.1629 38.7405 31.6069C39.1314 32.5407 38.8816 33.7025 38.6753 34.658Z" fill="#1D4E89"/>
</svg>
